<svg width="32" height="32" viewBox="0 0 32 32" fill="none" xmlns="http://www.w3.org/2000/svg">
<path d="M7.90749 18.2401C8.16082 18.2401 8.41415 18.3334 8.61415 18.5334L16.0008 25.9201L23.3875 18.5334C23.7742 18.1467 24.4142 18.1467 24.8008 18.5334C25.1875 18.9201 25.1875 19.5601 24.8008 19.9467L16.7075 28.0401C16.3208 28.4267 15.6808 28.4267 15.2942 28.0401L7.20082 19.9467C6.81415 19.5601 6.81415 18.9201 7.20082 18.5334C7.38749 18.3334 7.65415 18.2401 7.90749 18.2401Z" fill="#F80838"/>
<path d="M16 3.66645C16.5467 3.66645 17 4.11978 17 4.66645L17 27.1064C17 27.6531 16.5467 28.1064 16 28.1064C15.4533 28.1064 15 27.6531 15 27.1064L15 4.66645C15 4.11978 15.4533 3.66645 16 3.66645Z" fill="#F80838"/>
</svg>
