<svg width="32" height="32" viewBox="0 0 32 32" fill="none" xmlns="http://www.w3.org/2000/svg">
<path d="M24.0925 13.7599C23.8392 13.7599 23.5858 13.6666 23.3858 13.4666L15.9992 6.07992L8.61251 13.4666C8.22585 13.8533 7.58585 13.8533 7.19918 13.4666C6.81251 13.0799 6.81251 12.4399 7.19918 12.0533L15.2925 3.95992C15.6792 3.57326 16.3192 3.57326 16.7058 3.95992L24.7992 12.0533C25.1858 12.4399 25.1858 13.0799 24.7992 13.4666C24.6125 13.6666 24.3458 13.7599 24.0925 13.7599Z" fill="#09DF42"/>
<path d="M16 28.3336C15.4533 28.3336 15 27.8802 15 27.3336V4.89355C15 4.34689 15.4533 3.89355 16 3.89355C16.5467 3.89355 17 4.34689 17 4.89355V27.3336C17 27.8802 16.5467 28.3336 16 28.3336Z" fill="#09DF42"/>
</svg>
