<svg width="16" height="16" viewBox="0 0 16 16" fill="none" xmlns="http://www.w3.org/2000/svg">
<path d="M13.7568 0.292969C14.1474 -0.0974634 14.7804 -0.0975248 15.1709 0.292969C15.5612 0.683477 15.5613 1.31656 15.1709 1.70703L9.14551 7.73145L15.1709 13.7568C15.5611 14.1474 15.5613 14.7805 15.1709 15.1709C14.7805 15.5613 14.1474 15.5611 13.7568 15.1709L7.73145 9.14551L1.70703 15.1709C1.31656 15.5613 0.683477 15.5612 0.292969 15.1709C-0.0975245 14.7804 -0.0974625 14.1474 0.292969 13.7568L6.31738 7.73145L0.292969 1.70703C-0.0975555 1.31651 -0.0975555 0.683493 0.292969 0.292969C0.683493 -0.0975555 1.31651 -0.0975555 1.70703 0.292969L7.73145 6.31738L13.7568 0.292969Z" fill="#F0F0F0"/>
</svg>
