<svg width="27" height="30" viewBox="0 0 27 30" fill="none" xmlns="http://www.w3.org/2000/svg">
<path d="M25.9474 11.9502C25.9306 8.9052 25.7962 7.256 24.7196 6.1808C23.4904 4.9502 21.5094 4.9502 17.5502 4.9502H13.3502C9.391 4.9502 7.41 4.9502 6.1808 6.1808C4.9502 7.41 4.9502 9.391 4.9502 13.3502V20.3502C4.9502 24.3094 4.9502 26.2904 6.1808 27.5196C7.41 28.7502 9.391 28.7502 13.3502 28.7502H17.5502C21.5094 28.7502 23.4904 28.7502 24.7196 27.5196C25.9502 26.2904 25.9502 24.3094 25.9502 20.3502V18.9502" stroke="#F0F0F0" stroke-width="1.5" stroke-linecap="round"/>
<path d="M0.75 11.95V20.35C0.75 21.4639 1.1925 22.5322 1.98015 23.3198C2.7678 24.1075 3.83609 24.55 4.95 24.55M21.75 4.95C21.75 3.83609 21.3075 2.7678 20.5198 1.98015C19.7322 1.1925 18.6639 0.75 17.55 0.75H11.95C6.6706 0.75 4.0302 0.75 2.3908 2.3908C1.4752 3.305 1.0706 4.53 0.8928 6.35" stroke="#F0F0F0" stroke-width="1.5" stroke-linecap="round"/>
</svg>
