<svg width="76" height="76" viewBox="0 0 76 76" fill="none" xmlns="http://www.w3.org/2000/svg">
<g filter="url(#filter0_d_371_42165)">
<path d="M38.0515 8H37.9332C23.6107 8 12 19.6141 12 33.9408V34.0592C12 48.3859 23.6107 60 37.9332 60H38.0515C52.374 60 63.9847 48.3859 63.9847 34.0592V33.9408C63.9847 19.6141 52.374 8 38.0515 8Z" fill="url(#paint0_linear_371_42165)"/>
<path d="M46.0353 18.5801H29.9498C25.5059 18.5801 21.8906 22.1964 21.8906 26.6416V41.3618C21.8906 45.8071 25.5059 49.4234 29.9498 49.4234H46.0353C50.4792 49.4234 54.0944 45.8071 54.0944 41.3618V26.6416C54.0944 22.1964 50.4792 18.5801 46.0353 18.5801ZM24.7336 26.6416C24.7336 23.765 27.074 21.4239 29.9498 21.4239H46.0353C48.9111 21.4239 51.2514 23.765 51.2514 26.6416V41.3618C51.2514 44.2385 48.9111 46.5795 46.0353 46.5795H29.9498C27.074 46.5795 24.7336 44.2385 24.7336 41.3618V26.6416Z" fill="#F0F0F0"/>
<path d="M37.9934 41.4952C42.1259 41.4952 45.4898 38.1321 45.4898 33.9966C45.4898 29.8611 42.1277 26.498 37.9934 26.498C33.8592 26.498 30.4971 29.8611 30.4971 33.9966C30.4971 38.1321 33.8592 41.4952 37.9934 41.4952ZM37.9934 29.3437C40.5596 29.3437 42.6468 31.4315 42.6468 33.9984C42.6468 36.5654 40.5596 38.6532 37.9934 38.6532C35.4273 38.6532 33.3401 36.5654 33.3401 33.9984C33.3401 31.4315 35.4273 29.3437 37.9934 29.3437Z" fill="#F0F0F0"/>
<path d="M46.1819 27.7117C47.2947 27.7117 48.2017 26.8062 48.2017 25.6913C48.2017 24.5763 47.2965 23.6709 46.1819 23.6709C45.0673 23.6709 44.1621 24.5763 44.1621 25.6913C44.1621 26.8062 45.0673 27.7117 46.1819 27.7117Z" fill="#F0F0F0"/>
</g>
<defs>
<filter id="filter0_d_371_42165" x="0" y="0" width="75.9844" height="76" filterUnits="userSpaceOnUse" color-interpolation-filters="sRGB">
<feFlood flood-opacity="0" result="BackgroundImageFix"/>
<feColorMatrix in="SourceAlpha" type="matrix" values="0 0 0 0 0 0 0 0 0 0 0 0 0 0 0 0 0 0 127 0" result="hardAlpha"/>
<feOffset dy="4"/>
<feGaussianBlur stdDeviation="6"/>
<feComposite in2="hardAlpha" operator="out"/>
<feColorMatrix type="matrix" values="0 0 0 0 1 0 0 0 0 1 0 0 0 0 1 0 0 0 0.25 0"/>
<feBlend mode="normal" in2="BackgroundImageFix" result="effect1_dropShadow_371_42165"/>
<feBlend mode="normal" in="SourceGraphic" in2="effect1_dropShadow_371_42165" result="shape"/>
</filter>
<linearGradient id="paint0_linear_371_42165" x1="19.5947" y1="52.403" x2="56.4008" y2="15.6096" gradientUnits="userSpaceOnUse">
<stop stop-color="#FAAD4F"/>
<stop offset="0.35" stop-color="#DD2A7B"/>
<stop offset="0.62" stop-color="#9537B0"/>
<stop offset="1" stop-color="#515BD4"/>
</linearGradient>
</defs>
</svg>
