<svg width="76" height="76" viewBox="0 0 76 76" fill="none" xmlns="http://www.w3.org/2000/svg">
<g filter="url(#filter0_d_371_42176)">
<path d="M38.0515 8H37.9332C23.6107 8 12 19.6141 12 33.9408V34.0592C12 48.3859 23.6107 60 37.9332 60H38.0515C52.374 60 63.9847 48.3859 63.9847 34.0592V33.9408C63.9847 19.6141 52.374 8 38.0515 8Z" fill="#020203"/>
<path d="M51.1719 28.6513V33.5611C50.314 33.4773 49.1994 33.2823 47.9664 32.8305C46.3564 32.2403 45.158 31.4332 44.373 30.8083V40.7317L44.353 40.7008C44.3657 40.8975 44.373 41.0979 44.373 41.3001C44.373 46.2281 40.3644 50.2398 35.436 50.2398C30.5077 50.2398 26.499 46.2281 26.499 41.3001C26.499 36.3721 30.5077 32.3587 35.436 32.3587C35.9187 32.3587 36.3922 32.3969 36.8548 32.4716V37.3104C36.4104 37.1519 35.9332 37.0662 35.436 37.0662C33.103 37.0662 31.2034 38.9646 31.2034 41.3001C31.2034 43.6357 33.103 45.534 35.436 45.534C37.7691 45.534 39.6687 43.6339 39.6687 41.3001C39.6687 41.2127 39.6669 41.1252 39.6614 41.0378V21.7539H44.5661C44.5843 22.1693 44.6007 22.5883 44.6189 23.0037C44.6517 23.8217 44.9431 24.6069 45.4512 25.25C46.0468 26.006 46.9265 26.8841 48.1613 27.5855C49.3178 28.2414 50.4033 28.5219 51.1719 28.6549V28.6513Z" fill="#F80838"/>
<path d="M49.4863 24.6647V29.5745C48.6285 29.4907 47.5139 29.2957 46.2809 28.8439C44.6709 28.2537 43.4724 27.4466 42.6875 26.8217V36.7451L42.6674 36.7142C42.6802 36.9109 42.6875 37.1113 42.6875 37.3135C42.6875 42.2416 38.6789 46.2532 33.7505 46.2532C28.8221 46.2532 24.8135 42.2416 24.8135 37.3135C24.8135 32.3855 28.8221 28.3721 33.7505 28.3721C34.2331 28.3721 34.7066 28.4103 35.1693 28.485V33.3238C34.7249 33.1653 34.2477 33.0797 33.7505 33.0797C31.4174 33.0797 29.5178 34.978 29.5178 37.3135C29.5178 39.6491 31.4174 41.5474 33.7505 41.5474C36.0835 41.5474 37.9831 39.6473 37.9831 37.3135C37.9831 37.2261 37.9813 37.1387 37.9758 37.0512V17.7637H42.8805C42.8987 18.179 42.9151 18.5981 42.9334 19.0134C42.9661 19.8314 43.2575 20.6166 43.7657 21.2597C44.3612 22.0158 45.2409 22.8939 46.4757 23.5953C47.6322 24.2493 48.7177 24.5317 49.4863 24.6647Z" fill="#00E0FF"/>
<path d="M50.5576 26.8134V31.7232C49.6998 31.6394 48.5852 31.4444 47.3521 30.9926C45.7421 30.4024 44.5437 29.5953 43.7588 28.9704V38.8938L43.7387 38.8629C43.7515 39.0596 43.7588 39.26 43.7588 39.4622C43.7588 44.3902 39.7501 48.4019 34.8218 48.4019C29.8934 48.4019 25.8848 44.3902 25.8848 39.4622C25.8848 34.5342 29.8934 30.5208 34.8218 30.5208C35.3044 30.5208 35.7779 30.559 36.2406 30.6337V35.4725C35.7962 35.314 35.319 35.2284 34.8218 35.2284C32.4887 35.2284 30.5891 37.1267 30.5891 39.4622C30.5891 41.7978 32.4887 43.6961 34.8218 43.6961C37.1548 43.6961 39.0544 41.796 39.0544 39.4622C39.0544 39.3748 39.0526 39.2873 39.0471 39.1999V19.916H43.9518C43.97 20.3314 43.9864 20.7504 44.0047 21.1658C44.0374 21.9838 44.3288 22.769 44.837 23.4121C45.4325 24.1681 46.3122 25.0462 47.547 25.7476C48.7035 26.4017 49.789 26.684 50.5576 26.817V26.8134Z" fill="#F0F0F0"/>
</g>
<defs>
<filter id="filter0_d_371_42176" x="0" y="0" width="75.9844" height="76" filterUnits="userSpaceOnUse" color-interpolation-filters="sRGB">
<feFlood flood-opacity="0" result="BackgroundImageFix"/>
<feColorMatrix in="SourceAlpha" type="matrix" values="0 0 0 0 0 0 0 0 0 0 0 0 0 0 0 0 0 0 127 0" result="hardAlpha"/>
<feOffset dy="4"/>
<feGaussianBlur stdDeviation="6"/>
<feComposite in2="hardAlpha" operator="out"/>
<feColorMatrix type="matrix" values="0 0 0 0 1 0 0 0 0 1 0 0 0 0 1 0 0 0 0.25 0"/>
<feBlend mode="normal" in2="BackgroundImageFix" result="effect1_dropShadow_371_42176"/>
<feBlend mode="normal" in="SourceGraphic" in2="effect1_dropShadow_371_42176" result="shape"/>
</filter>
</defs>
</svg>
