<svg width="76" height="76" viewBox="0 0 76 76" fill="none" xmlns="http://www.w3.org/2000/svg">
<g filter="url(#filter0_d_371_42155)">
<path d="M37.9332 8H38.0515C52.365 8 63.9847 19.6232 63.9847 33.9408V34.0592C63.9847 48.3768 52.365 60 38.0515 60H37.9332C23.6197 60 12 48.3768 12 34.0592V33.9408C12 19.6232 23.6197 8 37.9332 8Z" fill="#FFFA00"/>
<path d="M46.1238 29.2423C46.1202 29.5903 46.0837 29.9382 46.051 30.2862C46.04 30.401 46.0364 30.5176 46.0346 30.6323C46.0309 30.8309 46.1894 31.0113 46.3879 30.9985C46.4826 30.9931 46.5791 30.9676 46.6702 30.9366C46.9744 30.8291 47.2749 30.7143 47.5772 30.5996C47.8504 30.4939 48.1291 30.3992 48.4114 30.3226C48.7191 30.2388 49.0269 30.1769 49.3402 30.2279C49.9776 30.3317 50.3929 31.0186 50.1598 31.6216C50.0942 31.791 49.994 31.9368 49.8738 32.0716C49.7081 32.2556 49.5205 32.4123 49.3165 32.5507C49.0761 32.7129 48.8339 32.8714 48.5917 33.0317C48.1873 33.2977 47.783 33.5618 47.3805 33.8314C47.2129 33.9426 47.0509 34.061 46.8924 34.1831C46.805 34.2505 46.723 34.3288 46.6483 34.4108C46.5063 34.5693 46.428 34.7715 46.4407 34.9828C46.4535 35.2069 46.4917 35.4255 46.5536 35.6405C46.7449 36.3109 47.0381 36.934 47.3933 37.5297C48.3458 39.1202 49.6954 40.3627 51.3017 41.3774C51.7425 41.6561 52.2142 41.882 52.6786 42.1207C52.7442 42.1553 52.8079 42.1899 52.8717 42.2282C52.9354 42.2664 52.9919 42.3175 53.0338 42.3794C53.0993 42.4723 53.1084 42.5707 53.052 42.6727C53.0046 42.7602 52.9354 42.8276 52.8607 42.8895C52.7769 42.9587 52.6859 43.017 52.5912 43.0699C52.0484 43.3777 51.4656 43.6073 50.8628 43.7676C50.5714 43.846 50.28 43.9279 49.9904 44.0136C49.8119 44.0664 49.6444 44.1447 49.4786 44.2304C49.2 44.3743 49.0415 44.6057 48.9832 44.9063C48.9505 45.0739 48.9304 45.2451 48.8994 45.4127C48.8229 45.8372 48.67 45.992 48.2547 46.0649C48.109 46.0904 47.9597 46.105 47.8121 46.1141C47.4406 46.1342 47.0691 46.1451 46.6975 46.1651C46.6866 46.1651 46.6757 46.1651 46.6666 46.1651C45.1822 46.2526 43.7471 46.7281 42.474 47.4969C42.4066 47.5369 42.3392 47.5789 42.27 47.6189C41.7546 47.9305 41.2301 48.2274 40.6673 48.446C40.0389 48.6902 39.3906 48.8359 38.7185 48.896C38.1521 48.947 37.5875 48.9397 37.0247 48.876C36.1815 48.7812 35.3819 48.5353 34.6261 48.1491C34.2746 47.9687 33.9358 47.7683 33.6007 47.5624C33.5825 47.5515 33.5643 47.5406 33.5443 47.5278C32.2075 46.7135 30.6867 46.2198 29.1222 46.156C29.1113 46.156 29.1004 46.156 29.0894 46.156C28.7616 46.1433 28.4356 46.1305 28.1078 46.1105C27.9165 46.0995 27.7253 46.074 27.5377 46.023C27.2991 45.9574 27.1261 45.7479 27.0806 45.5056C27.0551 45.3726 27.035 45.2396 27.0114 45.1066C27.0059 45.0775 27.0059 45.0465 27.0004 45.0174C26.9458 44.6275 26.7527 44.3415 26.3866 44.1757C26.1626 44.0737 25.9332 43.9917 25.6964 43.9261C25.2884 43.8132 24.8768 43.713 24.4779 43.569C24.1264 43.4433 23.7877 43.2939 23.4617 43.1154C23.3633 43.0626 23.2686 43.0025 23.1776 42.9405C23.1156 42.8986 23.0574 42.8512 23.0064 42.7984C22.8425 42.6272 22.8588 42.4031 23.0446 42.2573C23.1521 42.1717 23.2777 42.1152 23.3997 42.0551C24.2503 41.6379 25.0571 41.1497 25.8075 40.5703C26.9403 39.6977 27.9001 38.6647 28.6268 37.4204C28.8854 36.9741 29.1003 36.504 29.277 36.0194C29.3936 35.6988 29.4883 35.3782 29.512 35.0411C29.5284 34.7934 29.4446 34.5474 29.2752 34.3671C29.1532 34.2377 29.0111 34.1339 28.8672 34.03C28.6523 33.877 28.4356 33.7258 28.217 33.5819C27.7471 33.2721 27.2754 32.9679 26.8055 32.66C26.5997 32.5252 26.4012 32.3795 26.2227 32.21C26.0934 32.0862 25.9769 31.9532 25.884 31.7983C25.6909 31.474 25.6763 31.1406 25.8202 30.7981C25.9058 30.5941 26.0661 30.421 26.2665 30.3281C26.5524 30.1969 26.8511 30.1805 27.1516 30.2297C27.4758 30.2826 27.7872 30.3828 28.095 30.4939C28.4101 30.6068 28.7197 30.7307 29.033 30.8491C29.1787 30.9038 29.3262 30.9584 29.481 30.9821C29.5174 30.9876 29.5539 30.9985 29.5903 30.9967C29.7706 30.9912 29.9199 30.9329 29.9181 30.6906C29.9181 30.574 29.9145 30.4556 29.909 30.339C29.8817 29.7561 29.8471 29.1731 29.8325 28.5901C29.7997 27.2019 29.8052 25.8082 30.1676 24.46C30.3898 23.6348 30.7741 22.8678 31.2932 22.1864C32.3695 20.7709 33.7901 19.8727 35.4894 19.3936C36.4182 19.1312 37.3671 19.0456 38.3288 19.0748C39.2376 19.1021 40.1427 19.2569 41.0024 19.5557C42.0223 19.9128 42.9493 20.4302 43.7379 21.1644C44.634 21.9988 45.3243 22.9734 45.6995 24.154C45.8688 24.6878 45.9763 25.2343 46.0419 25.7881C46.1785 26.9341 46.1402 28.0873 46.1293 29.2387L46.1238 29.2423Z" fill="#F0F0F0"/>
<path d="M37.9719 49.6906C37.6295 49.6906 37.2835 49.6706 36.9411 49.6323C36.0195 49.5285 35.1234 49.257 34.282 48.8253C33.9068 48.6321 33.5426 48.4172 33.2056 48.2113L33.151 48.1785C31.8907 47.4097 30.4864 46.9743 29.0932 46.9178H29.0604C28.7708 46.9051 28.4229 46.8905 28.066 46.8704C27.7982 46.854 27.5597 46.8176 27.3393 46.7575C26.8311 46.619 26.4377 46.1836 26.3358 45.6498C26.3157 45.5496 26.2993 45.4476 26.283 45.3474L26.2647 45.2363C26.2593 45.2035 26.2556 45.1671 26.252 45.1324C26.2283 44.9648 26.181 44.9193 26.0771 44.8719C25.8914 44.7881 25.6947 44.7171 25.4943 44.6606C25.3996 44.6333 25.3049 44.6078 25.2084 44.5822C24.8878 44.4966 24.5564 44.4055 24.2231 44.2871C23.8297 44.1468 23.4509 43.9774 23.0975 43.7861C22.981 43.7224 22.8644 43.6513 22.7497 43.573C22.6422 43.4983 22.5439 43.4181 22.4583 43.3288C22.2288 43.0902 22.114 42.7859 22.1341 42.4708C22.1559 42.1556 22.3107 41.8696 22.5694 41.6619C22.7296 41.5344 22.8899 41.4578 23.0192 41.3941L23.0629 41.3722C23.8952 40.9641 24.6602 40.4923 25.3413 39.9676C26.4614 39.1041 27.3211 38.1458 27.9676 37.0363C28.1898 36.6555 28.3902 36.2238 28.5595 35.7574C28.6779 35.4331 28.7344 35.2036 28.7489 34.9904C28.7508 34.9503 28.7399 34.9121 28.718 34.8902C28.6433 34.8119 28.5359 34.7317 28.4211 34.6515C28.1916 34.4876 27.9858 34.3455 27.7928 34.2198C27.505 34.0303 27.2154 33.8427 26.9277 33.655L26.3831 33.2998C26.1063 33.1176 25.8859 32.9482 25.6929 32.766C25.498 32.582 25.345 32.3943 25.2248 32.1921C24.9079 31.6638 24.8696 31.0808 25.1137 30.5051C25.274 30.1243 25.5763 29.8092 25.9424 29.6397C26.3412 29.4557 26.7893 29.4029 27.2701 29.4831C27.6744 29.5505 28.0405 29.6725 28.3483 29.7837C28.5595 29.8602 28.7672 29.9403 28.9766 30.0205C29.0276 30.0405 29.0786 30.0606 29.1296 30.0788L29.1223 29.9331C29.1005 29.5031 29.0786 29.0568 29.0677 28.6141C29.0349 27.2185 29.0349 25.7338 29.4283 24.2672C29.6724 23.3563 30.0949 22.5037 30.6832 21.7312C31.8196 20.2374 33.3659 19.2062 35.2782 18.667C36.2289 18.3992 37.2343 18.2862 38.3471 18.319C39.3688 18.35 40.345 18.5267 41.2484 18.8437C42.4213 19.2536 43.4303 19.8493 44.2498 20.6127C45.3153 21.6055 46.0238 22.6913 46.4172 23.9284C46.5902 24.4749 46.7122 25.0561 46.7905 25.7028C46.9162 26.754 46.9016 27.7997 46.8889 28.8126L46.8834 29.2499C46.8798 29.5304 46.8579 29.8019 46.8342 30.066C46.9927 30.0059 47.1511 29.9458 47.3023 29.8875C47.632 29.7618 47.9288 29.6634 48.2093 29.5869C48.5681 29.4885 48.9961 29.3993 49.4605 29.4758C49.9978 29.5632 50.4658 29.8893 50.7427 30.3703C51.0141 30.8421 51.0596 31.3978 50.8702 31.8933C50.7773 32.1338 50.6371 32.3579 50.4404 32.5765C50.2437 32.7951 50.016 32.9919 49.7428 33.1777C49.5552 33.3052 49.3658 33.4291 49.1764 33.5548L48.6118 33.9265C48.3422 34.1032 48.0709 34.2817 47.8032 34.4603C47.6593 34.5568 47.5081 34.6643 47.3569 34.7827C47.3096 34.8192 47.2604 34.8647 47.213 34.9175C47.2021 34.9303 47.1985 34.9376 47.1985 34.9394C47.2076 35.0997 47.2349 35.2619 47.2841 35.4295C47.4462 35.9924 47.6939 36.5517 48.0454 37.1383C48.8777 38.5265 50.0743 39.7034 51.7061 40.7328C52.023 40.9332 52.3618 41.1044 52.7206 41.2884C52.8226 41.3394 52.9246 41.3923 53.0247 41.4451C53.1031 41.4852 53.1796 41.5289 53.2542 41.5726C53.4127 41.6655 53.5474 41.7894 53.6549 41.9424C53.8862 42.2722 53.9099 42.6803 53.7205 43.0337C53.6057 43.245 53.4509 43.3871 53.3453 43.4746C53.2069 43.5894 53.0703 43.6713 52.9665 43.7296C52.3855 44.0594 51.7444 44.3181 51.0578 44.5003C50.801 44.5677 50.5296 44.6442 50.2072 44.7407C50.0779 44.779 49.9432 44.8446 49.8284 44.9047C49.7792 44.9302 49.7501 44.9503 49.7301 45.0523C49.7137 45.1343 49.7028 45.2162 49.69 45.3C49.6773 45.3838 49.6645 45.4658 49.6499 45.5478C49.517 46.2856 49.1163 46.6883 48.3841 46.814C48.2184 46.8431 48.0399 46.8632 47.8541 46.8723C47.6702 46.8832 47.4863 46.8905 47.3005 46.8978C47.1129 46.9051 46.9253 46.9124 46.7395 46.9233H46.7195C45.3918 47.0034 44.0622 47.4261 42.8657 48.1494L42.6617 48.2714C42.1426 48.5848 41.5744 48.9109 40.9406 49.1568C40.2667 49.4192 39.5418 49.5868 38.786 49.656C38.5165 49.6797 38.2433 49.6924 37.9701 49.6924L37.9719 49.6906ZM27.8183 45.3073C27.9166 45.3292 28.0259 45.3419 28.1534 45.3492C28.4976 45.3693 28.8345 45.3838 29.1187 45.393H29.1533C30.8052 45.4622 32.4607 45.9741 33.9414 46.8759L33.9997 46.9124C34.3567 47.131 34.6608 47.3095 34.9741 47.4698C35.6534 47.8178 36.371 48.0364 37.1104 48.1184C37.6259 48.1767 38.1431 48.1821 38.6512 48.1366C39.2741 48.0801 39.8442 47.949 40.3924 47.7358C40.9169 47.5318 41.4159 47.2457 41.8785 46.967L42.0825 46.8431C43.4904 45.9923 45.0603 45.495 46.6248 45.4039H46.6557C46.8524 45.3911 47.0473 45.382 47.2422 45.3747C47.4189 45.3675 47.5974 45.3602 47.774 45.3511C47.9015 45.3438 48.0217 45.331 48.131 45.3128C48.1383 45.3128 48.1437 45.311 48.151 45.3091C48.1528 45.3 48.1547 45.2891 48.1583 45.2764C48.1711 45.2071 48.1801 45.1379 48.1911 45.0687C48.2075 44.9648 48.222 44.861 48.2421 44.759C48.3477 44.2179 48.6573 43.8007 49.1345 43.5529C49.3021 43.4655 49.5279 43.3562 49.7811 43.2815C50.118 43.1813 50.4021 43.1011 50.6735 43.0301C51.1088 42.9153 51.5204 42.7623 51.901 42.5764C51.5696 42.407 51.2308 42.2303 50.8993 42.0208C49.0617 40.8603 47.703 39.5194 46.745 37.9217C46.3243 37.2203 46.0238 36.5426 45.8252 35.8503C45.7469 35.5752 45.6996 35.2983 45.685 35.025C45.6632 34.6133 45.8052 34.2143 46.0875 33.901C46.195 33.7807 46.3115 33.6714 46.4317 33.5803C46.6102 33.4419 46.7887 33.3143 46.9617 33.1977C47.2331 33.0156 47.5081 32.8352 47.7813 32.6567L48.3459 32.285C48.5298 32.1648 48.712 32.0445 48.8941 31.9206C49.0635 31.8059 49.2001 31.6893 49.313 31.5636C49.384 31.4834 49.4296 31.416 49.455 31.3486C49.4897 31.2575 49.455 31.1719 49.4296 31.13C49.3822 31.048 49.3057 30.9915 49.2237 30.9788C49.0471 30.9496 48.8267 30.9988 48.6154 31.0571C48.3841 31.1209 48.1346 31.2029 47.8523 31.3122C47.5573 31.4251 47.2422 31.5454 46.9253 31.6565C46.7523 31.7166 46.5938 31.7512 46.4372 31.7603C46.1385 31.7767 45.8416 31.6692 45.6231 31.4597C45.3954 31.2411 45.2698 30.935 45.2752 30.6199C45.277 30.5124 45.2807 30.3685 45.2953 30.2191L45.308 30.0733C45.3353 29.7818 45.3608 29.5067 45.3645 29.2371L45.3699 28.7944C45.3827 27.787 45.3954 26.8342 45.2825 25.885C45.2169 25.3348 45.1149 24.8447 44.9711 24.3911C44.6596 23.4091 44.0859 22.5383 43.2172 21.7276C42.5433 21.0991 41.7365 20.6272 40.7493 20.2811C39.9935 20.0169 39.1703 19.8675 38.3052 19.842C37.349 19.8111 36.4948 19.9076 35.6953 20.1335C34.0853 20.5872 32.8432 21.4124 31.8979 22.6549C31.4299 23.2689 31.0948 23.9466 30.9017 24.6644C30.5611 25.9342 30.5611 27.2951 30.5921 28.5794C30.6012 29.0021 30.623 29.4375 30.6449 29.8584L30.6668 30.3102C30.6722 30.4377 30.6759 30.5652 30.6777 30.6927C30.6813 31.314 30.2533 31.7439 29.6123 31.764C29.4993 31.764 29.4137 31.7494 29.3664 31.7403C29.1278 31.7039 28.9256 31.6273 28.7635 31.5672C28.6543 31.5253 28.545 31.4834 28.4357 31.4415C28.2354 31.365 28.035 31.2885 27.8347 31.2156C27.5943 31.1282 27.3083 31.0334 27.026 30.9861C26.7874 30.9478 26.6581 30.9897 26.5816 31.0243C26.5634 31.0334 26.5343 31.0608 26.5179 31.099C26.4578 31.2411 26.476 31.3176 26.5325 31.4124C26.5816 31.4943 26.6509 31.5763 26.7419 31.6638C26.8676 31.7822 27.0187 31.8988 27.2173 32.0281L27.7582 32.3816C28.0496 32.571 28.341 32.7605 28.6306 32.9518C28.84 33.0903 29.0604 33.2415 29.3063 33.4164C29.4756 33.5384 29.6578 33.6714 29.8253 33.85C30.1368 34.1815 30.2989 34.6351 30.2679 35.0979C30.2369 35.5606 30.1022 35.976 29.9892 36.2857C29.7871 36.8377 29.5503 37.3497 29.2826 37.8087C28.545 39.0731 27.5323 40.2063 26.2702 41.1791C25.6018 41.6947 24.8605 42.1647 24.0646 42.5764C24.2777 42.6803 24.5017 42.775 24.7349 42.857C25.0117 42.9554 25.2995 43.0337 25.6054 43.1157C25.7038 43.143 25.804 43.1685 25.9023 43.1959C26.1755 43.2724 26.445 43.3689 26.7018 43.4855C27.2974 43.7552 27.6635 44.2489 27.7564 44.9138C27.76 44.9375 27.7618 44.9612 27.7636 44.983V44.9794L27.7819 45.0978C27.7928 45.1689 27.8055 45.2399 27.8183 45.3091V45.3073Z" fill="#020203"/>
</g>
<defs>
<filter id="filter0_d_371_42155" x="0" y="0" width="75.9844" height="76" filterUnits="userSpaceOnUse" color-interpolation-filters="sRGB">
<feFlood flood-opacity="0" result="BackgroundImageFix"/>
<feColorMatrix in="SourceAlpha" type="matrix" values="0 0 0 0 0 0 0 0 0 0 0 0 0 0 0 0 0 0 127 0" result="hardAlpha"/>
<feOffset dy="4"/>
<feGaussianBlur stdDeviation="6"/>
<feComposite in2="hardAlpha" operator="out"/>
<feColorMatrix type="matrix" values="0 0 0 0 1 0 0 0 0 1 0 0 0 0 1 0 0 0 0.25 0"/>
<feBlend mode="normal" in2="BackgroundImageFix" result="effect1_dropShadow_371_42155"/>
<feBlend mode="normal" in="SourceGraphic" in2="effect1_dropShadow_371_42155" result="shape"/>
</filter>
</defs>
</svg>
